<?xml version="1.0"?>
<svg width="256" height="256" xmlns="http://www.w3.org/2000/svg">

 <g>
  <title>background</title>
  <rect fill="#45c8dc" id="canvas_background" height="258" width="258" y="-1" x="-1"/>
 </g>
 <g>
  <title>Layer 1</title>
  <g id="Layer_2"/>
  <g stroke="null" id="Layer_1">
   <path stroke="null" id="svg_1" d="m61.23999,97.518593c9.041061,-7.018639 16.536255,-2.181351 26.547897,9.399445c1.125519,1.297974 2.638519,-0.218925 3.496689,-0.972466c0.854279,-0.751648 14.06044,-12.624962 14.703613,-13.186775c0.645111,-0.565651 1.421951,-1.627266 0.39328,-2.81871c-1.024788,-1.193329 -4.786926,-6.05191 -7.192993,-9.199913c-17.510681,-22.911674 47.913635,-38.44249 37.857437,-38.696259c-5.10849,-0.127846 -25.627632,-0.36808 -28.688499,-0.042625c-12.437019,1.319256 -28.033745,12.9291 -35.891182,18.330105c-10.265369,7.055408 -14.104958,11.168186 -14.746227,11.73c-2.901958,2.541618 -0.466866,8.403694 -5.730305,13.014328c-5.571499,4.89151 -9.043007,1.203026 -12.26273,4.023628c-1.60593,1.4142 -6.073189,4.759789 -7.357628,5.889206c-1.288219,1.129425 -1.516834,3.041473 -0.207272,4.558311c0,0 12.239441,13.525764 13.270069,14.71331c1.026733,1.197227 3.783428,2.204575 5.497898,0.697372c1.718319,-1.503288 6.113869,-5.362221 6.863628,-6.026726c0.751587,-0.650902 -0.494068,-8.351425 3.446323,-11.412231zm55.29451,5.003838c-1.158447,-1.338654 -2.593941,-1.371582 -3.849289,-0.271248l-13.891899,12.117416c-1.090691,0.960876 -1.235947,2.748947 -0.25959,3.874474l80.339035,91.414307c1.873337,2.167725 5.133728,2.394409 7.280197,0.511368l9.403275,-7.867065c2.140671,-1.884964 2.365387,-5.172424 0.492065,-7.336349l-79.513794,-92.442902zm107.125183,-38.911324c-0.718719,-4.786919 -3.200317,-3.77177 -4.482742,-1.745445c-1.278595,2.030235 -6.981812,10.664497 -9.325851,14.573845c-2.32666,3.889961 -8.051147,11.536217 -18.729187,3.984848c-11.119766,-7.865173 -7.253052,-13.349472 -5.311905,-17.043747c1.941086,-3.705971 7.923279,-14.095325 8.781464,-15.39909c0.862091,-1.303768 -0.139465,-5.10656 -3.591644,-3.512249c-3.456024,1.594345 -24.438202,9.936081 -27.351791,21.883049c-2.965927,12.177429 2.493179,23.045349 -8.231308,33.85125l-13.002731,13.564491l13.060837,15.184074l16.026718,-15.213097c3.822205,-3.841545 11.968262,-7.566856 19.351074,-5.895012c15.817535,3.581955 24.444046,-2.363426 29.643585,-12.177475c4.651291,-8.789215 3.882202,-27.270454 3.163483,-32.055443zm-166.243793,132.332558c-2.01474,2.032196 -2.01474,5.323486 -0.001949,7.355682l9.213516,9.000366c2.016632,2.024445 5.213066,1.175919 7.227798,-0.854279l47.535866,-46.735779l-14.569939,-16.576965l-49.405293,47.810974z" fill="#FFFFFF"/>
  </g>
 </g>
</svg>